<svg width="24" height="24" viewBox="0 0 24 24" fill="none" xmlns="http://www.w3.org/2000/svg">
<g clip-path="url(#clip0)">
<path d="M9.05626 19.1851L2.37188 12.5382C2.33333 12.4999 2.30274 12.4543 2.28187 12.4041C2.26099 12.3539 2.25024 12.3001 2.25024 12.2457C2.25024 12.1914 2.26099 12.1375 2.28187 12.0873C2.30274 12.0372 2.33333 11.9916 2.37188 11.9532L4.05938 10.2639C4.22063 10.1026 4.48126 10.1026 4.64251 10.2639L9.04313 14.6382C9.20438 14.7995 9.46688 14.7976 9.62813 14.6364L19.3519 4.81887C19.5131 4.65574 19.7756 4.65574 19.9388 4.81699L21.6281 6.50637C21.7894 6.66762 21.7894 6.92824 21.63 7.08949L11.0363 17.7789L11.0381 17.7807L9.64126 19.1851C9.48001 19.3464 9.21751 19.3464 9.05626 19.1851Z" fill="#F45A09" stroke="#F45A09" stroke-width="0.75" stroke-miterlimit="10"/>
</g>
<defs>
<clipPath id="clip0">
<rect width="24" height="24" fill="white"/>
</clipPath>
</defs>
</svg>
