<svg width="39" height="39" viewBox="0 0 39 39" fill="none" xmlns="http://www.w3.org/2000/svg">
<path d="M29.8125 6.99619C31.02 6.99619 32 7.97494 32 9.18369V12.9862C32.0001 13.6144 31.828 14.2306 31.5025 14.7678C31.1771 15.3051 30.7106 15.7429 30.1538 16.0337L22.3013 20.1337C23.5593 20.7645 24.5677 21.8014 25.1631 23.0766C25.7585 24.3517 25.9061 25.7906 25.582 27.1601C25.2579 28.5296 24.4811 29.7496 23.3773 30.6227C22.2735 31.4958 20.9073 31.9708 19.5 31.9708C18.0927 31.9708 16.7265 31.4958 15.6227 30.6227C14.5189 29.7496 13.7421 28.5296 13.418 27.1601C13.0939 25.7906 13.2415 24.3517 13.8369 23.0766C14.4323 21.8014 15.4407 20.7645 16.6987 20.1337L8.84625 16.0337C8.28943 15.7429 7.82294 15.3051 7.49745 14.7678C7.17196 14.2306 6.99991 13.6144 7 12.9862V9.18369C7 7.97494 7.98 6.99619 9.1875 6.99619H29.8125ZM19.5 21.3462C18.3397 21.3462 17.2269 21.8071 16.4064 22.6276C15.5859 23.4481 15.125 24.5609 15.125 25.7212C15.125 26.8815 15.5859 27.9943 16.4064 28.8148C17.2269 29.6353 18.3397 30.0962 19.5 30.0962C20.6603 30.0962 21.7731 29.6353 22.5936 28.8148C23.4141 27.9943 23.875 26.8815 23.875 25.7212C23.875 24.5609 23.4141 23.4481 22.5936 22.6276C21.7731 21.8071 20.6603 21.3462 19.5 21.3462ZM23.875 8.87119H15.125V17.1987L19.355 19.4074C19.3997 19.4309 19.4495 19.4431 19.5 19.4431C19.5505 19.4431 19.6003 19.4309 19.645 19.4074L23.875 17.1962V8.87119ZM13.25 8.87119H9.1875C9.10462 8.87119 9.02513 8.90411 8.96653 8.96271C8.90792 9.02132 8.875 9.10081 8.875 9.18369V12.9874C8.875 13.5699 9.19875 14.1037 9.71375 14.3724L13.25 16.2174V8.86994V8.87119ZM29.8125 8.87119H25.75V16.2187L29.2863 14.3712C29.5392 14.239 29.7512 14.04 29.899 13.7958C30.0469 13.5516 30.125 13.2716 30.125 12.9862V9.18369C30.125 9.10081 30.0921 9.02132 30.0335 8.96271C29.9749 8.90411 29.8954 8.87119 29.8125 8.87119Z" fill="white"/>
</svg>
