<svg width="80" height="15" viewBox="0 0 80 15" fill="none" xmlns="http://www.w3.org/2000/svg">
<path d="M26.3225 14.7518C28.204 14.7518 29.4695 14.3053 30.2854 13.4949C31.0846 12.7011 31.4509 11.56 31.4509 9.92272V3.12566H28.2873V4.18408C27.6046 3.47295 26.8053 2.9272 25.4566 2.9272C23.3752 2.9272 21.5603 4.51484 21.5603 7.09474C21.5603 9.69119 23.3419 11.2788 25.5565 11.2788C26.8719 11.2788 27.7045 10.6669 28.3372 9.93926V10.2866C28.3372 11.7088 27.5546 12.4861 25.9728 12.4861C24.7573 12.4861 23.7915 12.1719 22.8258 11.6427L21.8101 13.7264C23.1088 14.3879 24.5741 14.7518 26.3225 14.7518ZM26.5056 8.8643C25.4233 8.8643 24.6574 8.13663 24.6574 7.14436C24.6574 6.11901 25.4233 5.3748 26.5056 5.3748C27.5713 5.3748 28.3372 6.10247 28.3372 7.09474C28.3372 8.12009 27.5713 8.8643 26.5056 8.8643Z" fill="#A0A0A0"/>
<path d="M33.2123 12.0726H36.3759V3.12566H33.2123V12.0726ZM33.1457 2.3153H36.4425V0H33.1457V2.3153Z" fill="#A0A0A0"/>
<path d="M40.7186 12.2711C41.9008 12.2711 42.75 11.8246 43.366 11.1465V12.0726H46.4964V6.92936C46.4964 5.67249 46.2133 4.74637 45.5307 4.08485C44.8147 3.37372 43.7157 2.99335 42.1006 2.99335C40.552 2.99335 39.4697 3.2745 38.454 3.68794L39.1034 5.90402C39.9027 5.5898 40.6353 5.40788 41.5844 5.40788C42.7999 5.40788 43.3827 5.93709 43.3827 6.86321V7.01205C42.8665 6.83014 42.0506 6.66476 41.2181 6.66476C39.1034 6.66476 37.6881 7.62395 37.6881 9.4762C37.6881 11.2954 39.0035 12.2711 40.7186 12.2711ZM41.8508 10.3031C41.2014 10.3031 40.7352 9.93926 40.7352 9.32735C40.7352 8.63276 41.268 8.18624 42.1838 8.18624C42.6501 8.18624 43.0996 8.28547 43.416 8.41777V8.83122C43.416 9.72426 42.7666 10.3031 41.8508 10.3031Z" fill="#A0A0A0"/>
<path d="M52.5345 14.7518C54.4161 14.7518 55.6816 14.3053 56.4975 13.4949C57.2967 12.7011 57.663 11.56 57.663 9.92272V3.12566H54.4994V4.18408C53.8167 3.47295 53.0174 2.9272 51.6687 2.9272C49.5873 2.9272 47.7724 4.51484 47.7724 7.09474C47.7724 9.69119 49.554 11.2788 51.7686 11.2788C53.084 11.2788 53.9166 10.6669 54.5493 9.93926V10.2866C54.5493 11.7088 53.7667 12.4861 52.1849 12.4861C50.9694 12.4861 50.0036 12.1719 49.0379 11.6427L48.0222 13.7264C49.3209 14.3879 50.7862 14.7518 52.5345 14.7518ZM52.7177 8.8643C51.6354 8.8643 50.8695 8.13663 50.8695 7.14436C50.8695 6.11901 51.6354 5.3748 52.7177 5.3748C53.7834 5.3748 54.5493 6.10247 54.5493 7.09474C54.5493 8.12009 53.7834 8.8643 52.7177 8.8643Z" fill="#A0A0A0"/>
<path d="M59.4244 12.0726H62.588V3.12566H59.4244V12.0726ZM59.3578 2.3153H62.6546V0H59.3578V2.3153Z" fill="#A0A0A0"/>
<path d="M67.9297 12.2711C70.1276 12.2711 71.6095 11.2457 71.6095 9.27774C71.6095 7.50819 70.1942 6.91283 68.4126 6.40015C67.4635 6.11901 66.9473 5.95363 66.9473 5.60634C66.9473 5.32519 67.1971 5.14327 67.6799 5.14327C68.3959 5.14327 69.4116 5.45749 70.3441 5.97017L71.4264 3.98562C70.394 3.32411 69.0287 2.94374 67.7132 2.94374C65.6319 2.94374 64.1 4.00216 64.1 5.90402C64.1 7.73972 65.5153 8.31854 67.297 8.79814C68.2461 9.04621 68.7456 9.21159 68.7456 9.55888C68.7456 9.90618 68.4958 10.0716 67.9464 10.0716C67.0139 10.0716 65.8816 9.72426 64.8493 9.04621L63.6671 10.9481C64.9159 11.8411 66.4145 12.2711 67.9297 12.2711Z" fill="#A0A0A0"/>
<path d="M76.3202 12.2711C78.5181 12.2711 80 11.2457 80 9.27774C80 7.50819 78.5847 6.91283 76.8031 6.40015C75.854 6.11901 75.3378 5.95363 75.3378 5.60634C75.3378 5.32519 75.5875 5.14327 76.0704 5.14327C76.7864 5.14327 77.8021 5.45749 78.7346 5.97017L79.8169 3.98562C78.7845 3.32411 77.4191 2.94374 76.1037 2.94374C74.0224 2.94374 72.4905 4.00216 72.4905 5.90402C72.4905 7.73972 73.9058 8.31854 75.6874 8.79814C76.6365 9.04621 77.1361 9.21159 77.1361 9.55888C77.1361 9.90618 76.8863 10.0716 76.3368 10.0716C75.4044 10.0716 74.2721 9.72426 73.2398 9.04621L72.0576 10.9481C73.3064 11.8411 74.8049 12.2711 76.3202 12.2711Z" fill="#A0A0A0"/>
<path d="M14.6613 3.23445C14.3197 1.22651 12.468 -0.204525 10.4043 0.0239591C8.88387 0.192007 7.37692 1.33165 7.37692 1.33165C7.37692 1.33165 5.86777 0.192007 4.3473 0.0239591C2.28393 -0.204525 0.431939 1.22651 0.090352 3.23445C-0.314457 5.61334 0.395453 9.85617 7.37724 14.7518C14.3587 9.85617 15.0661 5.61334 14.6613 3.23445ZM2.62615 7.32126C2.62615 7.32126 6.95702 1.15497 12.0097 7.32126C12.0097 7.32126 7.67888 13.7907 2.62615 7.32126Z" fill="#A0A0A0"/>
<path d="M7.37589 9.07808C8.31595 9.07808 9.07802 8.31601 9.07802 7.37596C9.07802 6.4359 8.31595 5.67383 7.37589 5.67383C6.43584 5.67383 5.67377 6.4359 5.67377 7.37596C5.67377 8.31601 6.43584 9.07808 7.37589 9.07808Z" fill="#A0A0A0"/>
</svg>
