<svg width="25" height="25" viewBox="0 0 25 25" fill="none" xmlns="http://www.w3.org/2000/svg">
<path fill-rule="evenodd" clip-rule="evenodd" d="M7.39813 0.19925C8.71775 0.1385 9.1385 0.125 12.5 0.125C15.8615 0.125 16.2822 0.139625 17.6007 0.19925C18.9193 0.258875 19.8193 0.46925 20.6067 0.774125C21.4314 1.08575 22.1795 1.57287 22.7982 2.20287C23.4282 2.8205 23.9143 3.5675 24.2248 4.39325C24.5308 5.18075 24.74 6.08075 24.8008 7.397C24.8615 8.71887 24.875 9.13962 24.875 12.5C24.875 15.8615 24.8604 16.2822 24.8008 17.6019C24.7411 18.9181 24.5308 19.8181 24.2248 20.6056C23.9142 21.4315 23.4274 22.1797 22.7982 22.7982C22.1795 23.4282 21.4314 23.9143 20.6067 24.2248C19.8193 24.5308 18.9192 24.74 17.603 24.8008C16.2822 24.8615 15.8615 24.875 12.5 24.875C9.1385 24.875 8.71775 24.8604 7.39813 24.8008C6.08188 24.7411 5.18188 24.5308 4.39437 24.2248C3.56854 23.9142 2.8203 23.4274 2.20175 22.7982C1.57218 22.1803 1.08498 21.4324 0.774125 20.6067C0.46925 19.8193 0.26 18.9192 0.19925 17.603C0.1385 16.2811 0.125 15.8604 0.125 12.5C0.125 9.1385 0.139625 8.71775 0.19925 7.39925C0.258875 6.08075 0.46925 5.18075 0.774125 4.39325C1.08544 3.56759 1.57301 2.81973 2.20287 2.20175C2.82055 1.57231 3.56803 1.08512 4.39325 0.774125C5.18075 0.46925 6.08075 0.26 7.397 0.19925H7.39813ZM17.5006 2.42675C16.1956 2.36713 15.8041 2.35475 12.5 2.35475C9.19588 2.35475 8.80437 2.36713 7.49937 2.42675C6.29225 2.48187 5.6375 2.68325 5.201 2.85312C4.62388 3.07812 4.211 3.34475 3.77788 3.77788C3.3673 4.17731 3.05133 4.66357 2.85312 5.201C2.68325 5.6375 2.48187 6.29225 2.42675 7.49937C2.36713 8.80437 2.35475 9.19588 2.35475 12.5C2.35475 15.8041 2.36713 16.1956 2.42675 17.5006C2.48187 18.7078 2.68325 19.3625 2.85312 19.799C3.05113 20.3356 3.36725 20.8228 3.77788 21.2221C4.17725 21.6327 4.66438 21.9489 5.201 22.1469C5.6375 22.3168 6.29225 22.5181 7.49937 22.5732C8.80437 22.6329 9.19475 22.6453 12.5 22.6453C15.8053 22.6453 16.1956 22.6329 17.5006 22.5732C18.7078 22.5181 19.3625 22.3168 19.799 22.1469C20.3761 21.9219 20.789 21.6553 21.2221 21.2221C21.6327 20.8228 21.9489 20.3356 22.1469 19.799C22.3168 19.3625 22.5181 18.7078 22.5732 17.5006C22.6329 16.1956 22.6453 15.8041 22.6453 12.5C22.6453 9.19588 22.6329 8.80437 22.5732 7.49937C22.5181 6.29225 22.3168 5.6375 22.1469 5.201C21.9219 4.62388 21.6553 4.211 21.2221 3.77788C20.8227 3.36733 20.3364 3.05136 19.799 2.85312C19.3625 2.68325 18.7078 2.48187 17.5006 2.42675ZM10.9194 16.3149C11.8021 16.6823 12.7851 16.7319 13.7003 16.4552C14.6155 16.1784 15.4063 15.5925 15.9376 14.7975C16.4688 14.0025 16.7076 13.0477 16.6131 12.0962C16.5185 11.1448 16.0966 10.2556 15.4194 9.58062C14.9876 9.14916 14.4656 8.81879 13.8909 8.61329C13.3161 8.40779 12.703 8.33228 12.0956 8.39219C11.4881 8.4521 10.9015 8.64595 10.378 8.95977C9.85451 9.27359 9.40709 9.69959 9.06797 10.2071C8.72884 10.7146 8.50646 11.2909 8.41683 11.8947C8.3272 12.4985 8.37255 13.1146 8.54961 13.6987C8.72667 14.2828 9.03104 14.8204 9.44081 15.2728C9.85058 15.7252 10.3556 16.0811 10.9194 16.3149ZM8.00225 8.00225C8.5929 7.4116 9.29411 6.94307 10.0658 6.62341C10.8376 6.30375 11.6647 6.13922 12.5 6.13922C13.3353 6.13922 14.1624 6.30375 14.9342 6.62341C15.7059 6.94307 16.4071 7.4116 16.9977 8.00225C17.5884 8.5929 18.0569 9.29411 18.3766 10.0658C18.6963 10.8376 18.8608 11.6647 18.8608 12.5C18.8608 13.3353 18.6963 14.1624 18.3766 14.9342C18.0569 15.7059 17.5884 16.4071 16.9977 16.9977C15.8049 18.1906 14.187 18.8608 12.5 18.8608C10.813 18.8608 9.19513 18.1906 8.00225 16.9977C6.80937 15.8049 6.13922 14.187 6.13922 12.5C6.13922 10.813 6.80937 9.19513 8.00225 8.00225ZM20.2715 7.0865C20.4179 6.94843 20.535 6.78239 20.6161 6.59822C20.6971 6.41405 20.7404 6.21549 20.7433 6.0143C20.7463 5.8131 20.7088 5.61337 20.6332 5.42691C20.5575 5.24046 20.4452 5.07107 20.303 4.92879C20.1607 4.78651 19.9913 4.67423 19.8048 4.59858C19.6184 4.52294 19.4186 4.48547 19.2175 4.48841C19.0163 4.49134 18.8177 4.53461 18.6335 4.61566C18.4494 4.69671 18.2833 4.81388 18.1453 4.96025C17.8767 5.24491 17.7297 5.62301 17.7354 6.0143C17.7411 6.40558 17.8991 6.77924 18.1758 7.05595C18.4525 7.33266 18.8262 7.49063 19.2175 7.49634C19.6087 7.50204 19.9868 7.35503 20.2715 7.0865Z" fill="white"/>
</svg>
