<svg width="101" height="27" viewBox="0 0 101 27" fill="none" xmlns="http://www.w3.org/2000/svg">
<path d="M35.5921 17.8532L34.8055 18.881L35.5644 17.8532H35.5921Z" fill="white"/>
<path d="M19.7116 16.3088L29.1695 3.43958H15.7982L6.18797 16.3088H19.7116Z" fill="white"/>
<path d="M65.478 3.43958L60.7587 9.61722H52.1344L47.2351 16.3088H33.7143L38.6856 9.61722H30.0862L34.8055 3.43958H65.478Z" fill="white"/>
<path d="M101 3.43958L96.3693 9.61722H79.3977L74.5011 16.3088H60.9803L66.7908 8.49969C69.1809 5.31843 72.9696 3.43958 76.9937 3.43958H101Z" fill="white"/>
<path d="M77.7997 17.8532H73.3158H59.878C59.6011 18.4378 59.4654 19.0495 59.4654 19.6532C59.4654 21.9127 61.2877 24.0308 63.916 24.0308H85.6624L89.5951 18.8837L90.3567 17.8532H77.7997Z" fill="white"/>
<path d="M32.4985 17.8532L27.8568 24.0308H41.4911L46.0526 17.8532H32.4985Z" fill="white"/>
<path d="M4.97215 17.8532L0.33042 24.0308H13.9648L18.5262 17.8532H4.97215Z" fill="white"/>
</svg>
