<svg width="39" height="40" viewBox="0 0 39 40" fill="none" xmlns="http://www.w3.org/2000/svg">
<path d="M26.7698 21.5275C25.9183 23.2533 24.7645 24.9725 23.5848 26.5163C22.4656 27.9716 21.269 29.3657 20 30.6925C18.731 29.3657 17.5344 27.9717 16.4153 26.5163C15.2355 24.9725 14.0818 23.2533 13.2303 21.5275C12.369 19.7839 11.875 18.1508 11.875 16.75C11.875 14.5951 12.731 12.5285 14.2548 11.0048C15.7785 9.48102 17.8451 8.625 20 8.625C22.1549 8.625 24.2215 9.48102 25.7452 11.0048C27.269 12.5285 28.125 14.5951 28.125 16.75C28.125 18.1508 27.6294 19.7839 26.7698 21.5275ZM20 33C20 33 29.75 23.7603 29.75 16.75C29.75 14.1641 28.7228 11.6842 26.8943 9.85571C25.0658 8.02723 22.5859 7 20 7C17.4141 7 14.9342 8.02723 13.1057 9.85571C11.2772 11.6842 10.25 14.1641 10.25 16.75C10.25 23.7603 20 33 20 33Z" fill="white"/>
<path d="M20 20C19.138 20 18.3114 19.6576 17.7019 19.0481C17.0924 18.4386 16.75 17.612 16.75 16.75C16.75 15.888 17.0924 15.0614 17.7019 14.4519C18.3114 13.8424 19.138 13.5 20 13.5C20.862 13.5 21.6886 13.8424 22.2981 14.4519C22.9076 15.0614 23.25 15.888 23.25 16.75C23.25 17.612 22.9076 18.4386 22.2981 19.0481C21.6886 19.6576 20.862 20 20 20ZM20 21.625C21.2929 21.625 22.5329 21.1114 23.4471 20.1971C24.3614 19.2829 24.875 18.0429 24.875 16.75C24.875 15.4571 24.3614 14.2171 23.4471 13.3029C22.5329 12.3886 21.2929 11.875 20 11.875C18.7071 11.875 17.4671 12.3886 16.5529 13.3029C15.6386 14.2171 15.125 15.4571 15.125 16.75C15.125 18.0429 15.6386 19.2829 16.5529 20.1971C17.4671 21.1114 18.7071 21.625 20 21.625Z" fill="white"/>
</svg>
