<svg width="1568" height="854" viewBox="0 0 1568 854" fill="none" xmlns="http://www.w3.org/2000/svg">
<g clip-path="url(#clip0)">
<path d="M1057.65 574.089C1057.65 627.353 1042.66 677.127 1016.72 719.432H542.834C516.894 677.188 501.906 627.353 501.906 574.089C501.906 420.541 626.342 296.014 779.778 296.014C933.213 296.014 1057.65 420.541 1057.65 574.089Z" fill="#F8F8F8"/>
<path d="M1002.1 742.757C937.557 814.51 887.391 853.999 779.778 853.999C672.166 853.999 618.451 810.96 557.457 742.757H1002.1Z" fill="#F8F8F8"/>
<path d="M955.481 523.885H604.073C459.508 523.885 342.352 406.643 342.352 261.973C342.352 117.242 459.508 0 604.073 0H955.481C1100.05 0 1217.2 117.242 1217.2 261.912C1217.2 406.582 1100.05 523.885 955.481 523.885Z" fill="#F8F8F8"/>
<path d="M496.463 165.975H1069.4C1087.51 165.975 1105.43 172.342 1118.22 185.138C1129.17 196.097 1138.47 212.811 1138.28 237.973C1138.1 258.361 1131 278.013 1119.81 295.033C1110.39 309.421 1095.83 327.971 1075.45 344.195C1062.48 354.542 1046.15 359.685 1029.57 359.685C1011.65 359.685 994.332 353.318 980.628 341.685C946.368 312.665 870.874 258.728 782.349 258.728C782.349 258.728 691.377 251.749 594.165 335.563C579.176 348.481 560.088 355.644 540.328 355.644C522.708 355.644 505.517 350.134 491.385 339.604C474.01 326.624 452.047 304.217 435.468 266.871C435.468 266.871 411.364 212.627 454.25 179.628C466.302 170.383 481.291 165.975 496.463 165.975Z" fill="white"/>
<path d="M736.649 403.092C723.496 391.031 703.001 392.071 691.194 405.418C679.019 419.071 682.261 438.54 695.048 451.58C720.62 477.661 779.535 493.763 779.535 493.763C807.861 490.64 839.918 468.906 861.514 451.58C875.769 440.131 877.482 419.071 865.368 405.418C853.5 392.071 833.066 391.031 819.913 403.092L779.535 440.131L736.649 403.092Z" fill="white"/>
<path d="M241.41 0V472.581H236.148C105.716 472.581 0 366.848 0 236.321C0 171.057 26.429 111.977 69.1315 69.182C111.834 26.4483 170.932 0 236.148 0H241.41Z" fill="#F8F8F8"/>
<path d="M1568 236.321C1568 301.585 1541.57 360.665 1498.87 403.398C1456.17 446.132 1397.07 472.581 1331.85 472.581H1323.9V0H1331.85C1462.28 0 1568 105.793 1568 236.321Z" fill="#F8F8F8"/>
</g>
<defs>
<clipPath id="clip0">
<rect width="1568" height="854" fill="white"/>
</clipPath>
</defs>
</svg>
