<svg width="1282" height="698" viewBox="0 0 1282 698" fill="none" xmlns="http://www.w3.org/2000/svg">
<g clip-path="url(#clip0)">
<path d="M864.738 469.22C864.738 512.754 852.483 553.436 831.274 588.014H443.823C422.615 553.486 410.36 512.754 410.36 469.22C410.36 343.721 512.1 241.941 637.549 241.941C762.998 241.941 864.738 343.721 864.738 469.22Z" fill="#141414"/>
<path d="M819.32 607.078C766.549 665.724 725.533 697.999 637.549 697.999C549.564 697.999 505.647 662.822 455.778 607.078H819.32V607.078Z" fill="#141414"/>
<path d="M781.204 428.187H493.892C375.696 428.187 279.909 332.362 279.909 214.119C279.909 95.8255 375.696 0 493.892 0H781.204C899.401 0 995.188 95.8255 995.188 214.069C995.188 332.312 899.401 428.187 781.204 428.187Z" fill="#141414"/>
<path d="M405.908 135.656H874.341C889.147 135.656 903.803 140.86 914.257 151.319C923.21 160.276 930.813 173.936 930.663 194.503C930.513 211.166 924.711 227.228 915.557 241.139C907.854 252.899 895.95 268.061 879.293 281.321C868.689 289.778 855.334 293.981 841.778 293.981C827.123 293.981 812.967 288.777 801.763 279.269C773.752 255.551 712.028 211.466 639.65 211.466C639.65 211.466 565.271 205.761 485.79 274.265C473.535 284.824 457.929 290.678 441.772 290.678C427.367 290.678 413.311 286.175 401.757 277.568C387.551 266.96 369.594 248.645 356.039 218.121C356.039 218.121 336.331 173.786 371.395 146.815C381.249 139.259 393.504 135.656 405.908 135.656Z" fill="black"/>
<path d="M602.285 329.459C591.531 319.601 574.774 320.452 565.12 331.361C555.166 342.519 557.817 358.432 568.271 369.09C589.18 390.407 637.348 403.568 637.348 403.568C660.507 401.016 686.718 383.252 704.375 369.09C716.029 359.733 717.43 342.519 707.526 331.361C697.822 320.452 681.115 319.601 670.361 329.459L637.348 359.733L602.285 329.459Z" fill="black"/>
<path d="M197.377 0V386.254H193.075C86.4337 386.254 0 299.836 0 193.152C0 139.81 21.6084 91.5221 56.522 56.5446C91.4357 21.617 139.755 0 193.075 0H197.377Z" fill="#141414"/>
<path d="M1282 193.152C1282 246.494 1260.39 294.782 1225.48 329.71C1190.56 364.637 1142.25 386.254 1088.92 386.254H1082.42V0H1088.92C1195.57 0 1282 86.4681 1282 193.152Z" fill="#141414"/>
</g>
<defs>
<clipPath id="clip0">
<rect width="1282" height="698" fill="white"/>
</clipPath>
</defs>
</svg>
