<svg width="138" height="28" viewBox="0 0 138 28" fill="none" xmlns="http://www.w3.org/2000/svg">
<path d="M48.3354 19.5996L47.258 20.9997L48.2994 19.5996H48.3354Z" fill="white"/>
<path d="M26.5664 17.4994L39.5315 0H21.2033L8.02814 17.4994H26.5664Z" fill="#F45A09"/>
<path d="M89.3044 0L82.8354 8.40044H71.0123L64.2987 17.4994H45.7634L52.5761 8.40044H40.789L47.258 0H89.3044Z" fill="#F45A09"/>
<path d="M138 0L131.654 8.40044H108.387L101.674 17.5009H83.1385L91.1021 6.88199C94.3794 2.55462 99.5715 0 105.089 0H138Z" fill="#F45A09"/>
<path d="M106.195 19.5996H100.05H81.6274C81.2463 20.3961 81.0632 21.2277 81.0632 22.0461C81.0632 25.1195 83.5602 28 87.1661 28H116.977L122.367 20.9997L123.41 19.5996H106.195Z" fill="#F45A09"/>
<path d="M44.0947 19.5996L37.7338 28H56.4221L62.6765 19.5996H44.0947Z" fill="#F45A09"/>
<path d="M6.36099 19.5996L0 28H18.6868L24.9413 19.5996H6.36099Z" fill="#F45A09"/>
</svg>
