<svg width="227" height="85" viewBox="0 0 227 85" fill="none" xmlns="http://www.w3.org/2000/svg">
<circle cx="39.6551" cy="72.632" r="10.4749" stroke="white" stroke-width="2"/>
<circle cx="70.2337" cy="72.632" r="10.4749" stroke="white" stroke-width="2"/>
<circle cx="133.189" cy="72.632" r="10.4749" stroke="white" stroke-width="2"/>
<circle cx="184.154" cy="72.632" r="10.4749" stroke="white" stroke-width="2"/>
<circle cx="39.8564" cy="72.4306" r="7.05256" stroke="white" stroke-width="2"/>
<circle cx="70.4349" cy="72.4306" r="7.05256" stroke="white" stroke-width="2"/>
<circle cx="133.391" cy="72.4306" r="7.05256" stroke="white" stroke-width="2"/>
<circle cx="184.355" cy="72.4306" r="7.05256" stroke="white" stroke-width="2"/>
<rect x="33.3773" y="1" width="21.9832" height="2.79663" rx="1.39832" stroke="white" stroke-width="2"/>
<rect x="109.524" y="1" width="21.9832" height="2.79663" rx="1.39832" stroke="white" stroke-width="2"/>
<path d="M150.794 53.0627H151.794V52.0627H150.794V53.0627ZM12.2914 53.0627V52.0627H11.5329L11.3284 52.7931L12.2914 53.0627ZM150.794 72.2493V73.2493H151.794V72.2493H150.794ZM148.068 72.2493L147.07 72.3108L147.128 73.2493H148.068V72.2493ZM119.344 72.2493V73.2493H120.284L120.342 72.3108L119.344 72.2493ZM116.918 72.2493H115.918V73.2493H116.918V72.2493ZM116.918 61.4569H117.918V60.4569H116.918V61.4569ZM87.5386 61.4569V60.4569H86.5386V61.4569H87.5386ZM87.5386 72.2493V73.2493H88.5386V72.2493H87.5386ZM84.513 72.2493L83.5149 72.3108L83.5728 73.2493H84.513V72.2493ZM55.7885 72.2493V73.2493H56.7287L56.7866 72.3108L55.7885 72.2493ZM53.9345 72.2493L52.9364 72.3108L52.9942 73.2493H53.9345V72.2493ZM25.21 72.2493V73.2493H26.1502L26.2081 72.3108L25.21 72.2493ZM6.59537 60.5575V59.5575H5.59537V60.5575H6.59537ZM11.0109 57.636L10.0479 57.3664L11.0109 57.636ZM150.794 52.0627H12.2914V54.0627H150.794V52.0627ZM151.794 72.2493V53.0627H149.794V72.2493H151.794ZM148.068 73.2493H150.794V71.2493H148.068V73.2493ZM133.706 59.7588C140.82 59.7588 146.638 65.3066 147.07 72.3108L149.067 72.1877C148.57 64.1353 141.883 57.7588 133.706 57.7588V59.7588ZM120.342 72.3108C120.774 65.3066 126.593 59.7588 133.706 59.7588V57.7588C125.529 57.7588 118.842 64.1353 118.346 72.1877L120.342 72.3108ZM116.918 73.2493H119.344V71.2493H116.918V73.2493ZM115.918 61.4569V72.2493H117.918V61.4569H115.918ZM87.5386 62.4569H116.918V60.4569H87.5386V62.4569ZM88.5386 72.2493V61.4569H86.5386V72.2493H88.5386ZM84.513 73.2493H87.5386V71.2493H84.513V73.2493ZM70.1508 59.7588C77.2644 59.7588 83.083 65.3066 83.5149 72.3108L85.5111 72.1877C85.0145 64.1353 78.3277 57.7588 70.1508 57.7588V59.7588ZM56.7866 72.3108C57.2186 65.3066 63.0372 59.7588 70.1508 59.7588V57.7588C61.9738 57.7588 55.287 64.1353 54.7904 72.1877L56.7866 72.3108ZM53.9345 73.2493H55.7885V71.2493H53.9345V73.2493ZM39.5722 59.7588C46.6858 59.7588 52.5044 65.3066 52.9364 72.3108L54.9326 72.1877C54.436 64.1353 47.7491 57.7588 39.5722 57.7588V59.7588ZM26.2081 72.3108C26.64 65.3066 32.4586 59.7588 39.5722 59.7588V57.7588C31.3953 57.7588 24.7084 64.1353 24.2119 72.1877L26.2081 72.3108ZM11.5954 73.2493H25.21V71.2493H11.5954V73.2493ZM5.59537 67.2493C5.59537 70.563 8.28166 73.2493 11.5954 73.2493V71.2493C9.38623 71.2493 7.59537 69.4584 7.59537 67.2493H5.59537ZM5.59537 60.5575V67.2493H7.59537V60.5575H5.59537ZM7.159 59.5575H6.59537V61.5575H7.159V59.5575ZM10.0479 57.3664C9.68515 58.6619 8.50433 59.5575 7.159 59.5575V61.5575C9.40121 61.5575 11.3693 60.0648 11.9738 57.9056L10.0479 57.3664ZM11.3284 52.7931L10.0479 57.3664L11.9738 57.9056L13.2543 53.3324L11.3284 52.7931Z" fill="white"/>
<mask id="path-12-inside-1" fill="white">
<path fill-rule="evenodd" clip-rule="evenodd" d="M22.4842 5.99585C10.0665 5.99585 0 16.0624 0 28.4801C0 40.8978 10.0665 50.9643 22.4842 50.9643H142.4C151.685 50.9643 159.655 45.3369 163.086 37.3068V50.3647H169.681V32.3773L171.48 32.3773V50.3647H176.276V13.1907H171.48V26.9811H164.835C164.064 15.2623 154.314 5.99585 142.4 5.99585H22.4842Z"/>
</mask>
<path d="M163.086 37.3068H165.086L161.246 36.521L163.086 37.3068ZM163.086 50.3647H161.086V52.3647H163.086V50.3647ZM169.681 50.3647V52.3647H171.681V50.3647H169.681ZM169.681 32.3773V30.3773L167.681 30.3773V32.3773H169.681ZM171.48 32.3773H173.48V30.3773L171.48 30.3773V32.3773ZM171.48 50.3647H169.48V52.3647H171.48V50.3647ZM176.276 50.3647V52.3647H178.276V50.3647H176.276ZM176.276 13.1907H178.276V11.1907H176.276V13.1907ZM171.48 13.1907V11.1907H169.48V13.1907H171.48ZM171.48 26.9811V28.9811H173.48V26.9811H171.48ZM164.835 26.9811L162.839 27.1124L162.962 28.9811H164.835V26.9811ZM2 28.4801C2 17.1669 11.1711 7.99585 22.4842 7.99585V3.99585C8.96196 3.99585 -2 14.9578 -2 28.4801H2ZM22.4842 48.9643C11.1711 48.9643 2 39.7932 2 28.4801H-2C-2 42.0023 8.96198 52.9643 22.4842 52.9643V48.9643ZM142.4 48.9643H22.4842V52.9643H142.4V48.9643ZM161.246 36.521C158.119 43.8408 150.856 48.9643 142.4 48.9643V52.9643C152.514 52.9643 161.19 46.8329 164.925 38.0926L161.246 36.521ZM165.086 50.3647V37.3068H161.086V50.3647H165.086ZM169.681 48.3647H163.086V52.3647H169.681V48.3647ZM167.681 32.3773V50.3647H171.681V32.3773H167.681ZM171.48 30.3773L169.681 30.3773V34.3773L171.48 34.3773V30.3773ZM173.48 50.3647V32.3773H169.48V50.3647H173.48ZM176.276 48.3647H171.48V52.3647H176.276V48.3647ZM174.276 13.1907V50.3647H178.276V13.1907H174.276ZM171.48 15.1907H176.276V11.1907H171.48V15.1907ZM173.48 26.9811V13.1907H169.48V26.9811H173.48ZM164.835 28.9811H171.48V24.9811H164.835V28.9811ZM142.4 7.99585C153.253 7.99585 162.137 16.4379 162.839 27.1124L166.831 26.8497C165.991 14.0866 155.375 3.99585 142.4 3.99585V7.99585ZM22.4842 7.99585H142.4V3.99585H22.4842V7.99585Z" fill="white" mask="url(#path-12-inside-1)"/>
<path d="M150.794 57.5596H172.676C175.508 57.5596 178.176 58.8933 179.876 61.1596L180.773 62.3562" stroke="white" stroke-width="2"/>
<path d="M150.794 53.0628H178.375V51.264" stroke="white" stroke-width="2"/>
<path d="M173.878 13.7903V2.39833L171.18 0.299805" stroke="white" stroke-width="2"/>
<path d="M208.953 14.6897H177.475V51.5638H190.966C199.84 52.0435 203.457 58.5589 204.157 61.7567H225.142V50.9642L208.953 14.6897Z" stroke="white" stroke-width="2"/>
<rect x="186.27" y="17.7882" width="15.3878" height="18.3857" stroke="white" stroke-width="2"/>
<path d="M207.155 36.5744V17.3878H208.054L216.148 36.5744H207.155Z" stroke="white" stroke-width="2"/>
<path d="M225.142 80.0439V64.155H204.756L205.356 65.3542H196.662C198.761 67.7525 199.26 70.5505 199.36 72.2493H207.155V80.0439H225.142Z" stroke="white" stroke-width="2"/>
</svg>
