<svg width="131" height="128" viewBox="0 0 131 128" fill="none" xmlns="http://www.w3.org/2000/svg">
<path d="M9.90112 75.2788V61.6919H36.5581V118.052" stroke="white" stroke-width="2"/>
<path d="M28.1802 54.0756V35.2888L36.2445 30.2113V11.4244L49.3489 5.33142L62.4534 11.4244V31.7345" stroke="white" stroke-width="2"/>
<path d="M79.2094 35.7312V24.6006L105.257 17.5175V55.9688L122.622 63.5579V88.3489" stroke="white" stroke-width="2"/>
<path d="M62.4535 88.6028V40.3663L97.4884 48.9981V118.052" stroke="white" stroke-width="2"/>
<path d="M48.7441 6.09302V0" stroke="white" stroke-width="2"/>
<path d="M105.105 18.2791V12.186" stroke="white" stroke-width="2"/>
<circle cx="10.6628" cy="92.157" r="8.90116" stroke="white" stroke-width="2"/>
<path d="M71.3546 105.105C71.3546 109.985 67.2348 114.006 62.0726 114.006C56.9104 114.006 52.7906 109.985 52.7906 105.105C52.7906 100.224 56.9104 96.2035 62.0726 96.2035C67.2348 96.2035 71.3546 100.224 71.3546 105.105Z" stroke="white" stroke-width="2"/>
<path d="M130 102.058C130 106.939 125.88 110.959 120.718 110.959C115.556 110.959 111.436 106.939 111.436 102.058C111.436 97.1774 115.556 93.157 120.718 93.157C125.88 93.157 130 97.1774 130 102.058Z" stroke="white" stroke-width="2"/>
<path d="M10.6628 101.297V126.43" stroke="white" stroke-width="2"/>
<path d="M62.4535 114.244V126.43" stroke="white" stroke-width="2"/>
<path d="M121.099 111.198V126.43" stroke="white" stroke-width="2"/>
<path d="M0 126.43H128.715" stroke="white" stroke-width="2"/>
<rect x="42.6511" y="15.9941" width="4.56977" height="8.37791" rx="2.28488" fill="white"/>
<rect x="42.6511" y="42.6511" width="4.56977" height="7.61628" rx="2.28488" fill="white"/>
<rect x="35.0349" y="42.6511" width="3.80814" height="7.61628" rx="1.90407" fill="white"/>
<rect x="42.6511" y="68.5465" width="4.56977" height="8.37791" rx="2.28488" fill="white"/>
<rect x="17.5175" y="68.5465" width="4.56977" height="8.37791" rx="2.28488" fill="white"/>
<rect x="69.3081" y="68.5465" width="3.80814" height="8.37791" rx="1.90407" fill="white"/>
<rect x="42.6511" y="28.9419" width="4.56977" height="8.37791" rx="2.28488" fill="white"/>
<rect x="86.8256" y="28.9419" width="3.80814" height="8.37791" rx="1.90407" fill="white"/>
<rect x="103.581" y="68.5465" width="3.80814" height="8.37791" rx="1.90407" fill="white"/>
<rect x="103.581" y="82.2559" width="3.80814" height="7.61628" rx="1.90407" fill="white"/>
<rect x="103.581" y="95.2035" width="3.80814" height="7.61628" rx="1.90407" fill="white"/>
<rect x="42.6511" y="55.5989" width="4.56977" height="8.37791" rx="2.28488" fill="white"/>
<rect x="69.3081" y="55.5989" width="3.80814" height="8.37791" rx="1.90407" fill="white"/>
<rect x="42.6511" y="82.2559" width="4.56977" height="7.61628" rx="2.28488" fill="white"/>
<rect x="42.6511" y="95.2035" width="4.56977" height="7.61628" rx="2.28488" fill="white"/>
<rect x="69.3081" y="82.2559" width="3.80814" height="7.61628" rx="1.90407" fill="white"/>
<rect x="51.0291" y="15.9941" width="3.80814" height="8.37791" rx="1.90407" fill="white"/>
<rect x="51.0291" y="42.6511" width="3.80814" height="7.61628" rx="1.90407" fill="white"/>
<rect x="51.0291" y="68.5465" width="3.80814" height="8.37791" rx="1.90407" fill="white"/>
<rect x="25.8954" y="68.5465" width="3.80814" height="8.37791" rx="1.90407" fill="white"/>
<rect x="25.8954" y="82.2559" width="3.80814" height="7.61628" rx="1.90407" fill="white"/>
<rect x="25.8954" y="95.2035" width="3.80814" height="7.61628" rx="1.90407" fill="white"/>
<rect x="25.8954" y="107.39" width="3.80814" height="12.186" rx="1.90407" fill="white"/>
<rect x="42.6511" y="107.39" width="4.56977" height="12.186" rx="2.28488" fill="white"/>
<rect x="77.686" y="107.39" width="3.80814" height="12.186" rx="1.90407" fill="white"/>
<rect x="85.3024" y="107.39" width="4.56977" height="12.186" rx="2.28488" fill="white"/>
<rect x="103.581" y="107.39" width="3.80814" height="12.186" rx="1.90407" fill="white"/>
<rect x="17.5175" y="107.39" width="4.56977" height="12.186" rx="2.28488" fill="white"/>
<rect x="77.686" y="68.5465" width="3.80814" height="8.37791" rx="1.90407" fill="white"/>
<rect x="85.3024" y="68.5465" width="4.56977" height="8.37791" rx="2.28488" fill="white"/>
<rect x="51.0291" y="28.9419" width="3.80814" height="8.37791" rx="1.90407" fill="white"/>
<rect x="94.4419" y="28.9419" width="3.80814" height="8.37791" rx="1.90407" fill="white"/>
<rect x="111.959" y="68.5465" width="3.80814" height="8.37791" rx="1.90407" fill="white"/>
<rect x="111.959" y="82.2559" width="3.80814" height="7.61628" rx="1.90407" fill="white"/>
<rect x="51.0291" y="55.5989" width="3.80814" height="8.37791" rx="1.90407" fill="white"/>
<rect x="77.686" y="55.5989" width="3.80814" height="8.37791" rx="1.90407" fill="white"/>
<rect x="85.3024" y="55.5989" width="4.56977" height="8.37791" rx="2.28488" fill="white"/>
<rect x="51.0291" y="82.2559" width="3.80814" height="7.61628" rx="1.90407" fill="white"/>
<rect x="77.686" y="82.2559" width="3.80814" height="7.61628" rx="1.90407" fill="white"/>
<rect x="77.686" y="95.2035" width="3.80814" height="7.61628" rx="1.90407" fill="white"/>
<rect x="85.3024" y="82.2559" width="4.56977" height="7.61628" rx="2.28488" fill="white"/>
<rect x="85.3024" y="95.2035" width="4.56977" height="7.61628" rx="2.28488" fill="white"/>
</svg>
