<svg width="195" height="82" viewBox="0 0 195 82" fill="none" xmlns="http://www.w3.org/2000/svg">
<rect x="1" y="1.59753" width="142.543" height="50.7443" stroke="white" stroke-width="2"/>
<path d="M78.1817 53.4061V52.4061H75.683L77.4918 54.13L78.1817 53.4061ZM78.1099 55.3551V56.3551H78.4719L78.75 56.1233L78.1099 55.3551ZM81.3309 53.4061L82.0912 54.0557L83.5007 52.4061H81.3309V53.4061ZM81.3309 55.3551L80.55 55.9798L80.8503 56.3551H81.3309V55.3551ZM107.904 55.3551V56.3551H108.319L108.611 56.0622L107.904 55.3551ZM107.904 53.3419V52.3419H106.036L107.072 53.8966L107.904 53.3419ZM110.521 53.3419L111.229 54.049L112.936 52.3419H110.521V53.3419ZM110.521 55.3551L109.689 55.9098L109.986 56.3551H110.521V55.3551ZM135.283 55.3551V56.3551H135.849L136.141 55.8696L135.283 55.3551ZM135.283 53.3419V52.3419H133.517L134.426 53.8564L135.283 53.3419ZM139.712 53.3419L140.419 54.049L142.126 52.3419H139.712V53.3419ZM139.712 55.3551L138.88 55.9098L139.177 56.3551H139.712V55.3551ZM145.953 55.3551H146.953V54.3551H145.953V55.3551ZM145.953 61.3945V62.3945H146.953V61.3945H145.953ZM139.712 61.3945V60.3945H138.712V61.3945H139.712ZM139.712 65.8234H138.712V66.8234H139.712V65.8234ZM148.167 65.8234H149.167V64.8234H148.167V65.8234ZM148.167 70.051V71.051H149.167V70.051H148.167ZM76.902 70.051H75.902V71.051H76.902V70.051ZM76.902 65.8234L76.5508 64.8871L75.902 65.1304V65.8234H76.902ZM78.5125 65.2194L78.8636 66.1558L79.5125 65.9124V65.2194H78.5125ZM78.5125 61.3945H79.5125V60.3945H78.5125V61.3945ZM75.6941 61.3945L74.8941 61.9945L75.1941 62.3945H75.6941V61.3945ZM73.4796 55.3551V54.3551H72.5485L72.4822 55.2838L73.4796 55.3551ZM84.9545 61.3944H85.9545V60.3944H84.9545V61.3944ZM80.9282 61.3944V60.3944H79.9282V61.3944H80.9282ZM84.9545 65.8233V66.8233H85.9545V65.8233H84.9545ZM80.9282 65.8233H79.9282V66.8233H80.9282V65.8233ZM95.8255 61.3944V60.3944H94.8255V61.3944H95.8255ZM99.8517 61.3944H100.852V60.3944H99.8517V61.3944ZM95.8255 65.8233H94.8255V66.8233H95.8255V65.8233ZM99.8517 65.8233V66.8233H100.852V65.8233H99.8517ZM120.788 61.3944H121.788V60.3944H120.788V61.3944ZM116.762 61.3944V60.3944H115.762V61.3944H116.762ZM120.788 65.8233V66.8233H121.788V65.8233H120.788ZM116.762 65.8233H115.762V66.8233H116.762V65.8233ZM124.815 61.3944V60.3944H123.815V61.3944H124.815ZM128.841 61.3944H129.841V60.3944H128.841V61.3944ZM124.815 65.8233H123.815V66.8233H124.815V65.8233ZM128.841 65.8233V66.8233H129.841V65.8233H128.841ZM108.307 61.3944H109.307V60.3944H108.307V61.3944ZM104.281 61.3944V60.3944H103.281V61.3944H104.281ZM108.307 65.8233V66.8233H109.307V65.8233H108.307ZM104.281 65.8233H103.281V66.8233H104.281V65.8233ZM77.4918 54.13C77.5297 54.1661 77.5704 54.2151 77.601 54.2673C77.6316 54.3194 77.6407 54.3549 77.6428 54.3703C77.6439 54.3781 77.6443 54.3809 77.6389 54.3937C77.6318 54.4105 77.5978 54.48 77.4697 54.5868L78.75 56.1233C79.4342 55.5531 79.7236 54.8319 79.6247 54.1019C79.5372 53.4559 79.1669 52.9636 78.8716 52.6822L77.4918 54.13ZM81.3309 52.4061H78.1817V54.4061H81.3309V52.4061ZM82.1118 54.7304C82.035 54.6344 82.0033 54.5574 81.9889 54.5023C81.9741 54.4454 81.9717 54.3888 81.9796 54.3304C81.9978 54.1958 82.0663 54.0847 82.0912 54.0557L80.5706 52.7564C80.1326 53.2691 79.4877 54.6518 80.55 55.9798L82.1118 54.7304ZM107.904 54.3551H81.3309V56.3551H107.904V54.3551ZM107.072 53.8966C107.14 53.9975 107.231 54.1949 107.254 54.383C107.275 54.5485 107.239 54.6067 107.197 54.648L108.611 56.0622C109.214 55.4593 109.312 54.7122 109.239 54.1328C109.168 53.576 108.938 53.0889 108.736 52.7872L107.072 53.8966ZM110.521 52.3419H107.904V54.3419H110.521V52.3419ZM111.353 54.8004C111.286 54.6994 111.195 54.502 111.171 54.3139C111.15 54.1485 111.187 54.0903 111.229 54.049L109.814 52.6348C109.211 53.2377 109.114 53.9848 109.187 54.5642C109.257 55.121 109.488 55.608 109.689 55.9098L111.353 54.8004ZM135.283 54.3551H110.521V56.3551H135.283V54.3551ZM134.426 53.8564C134.452 53.9004 134.524 54.0603 134.544 54.2696C134.563 54.464 134.535 54.6587 134.426 54.8406L136.141 55.8696C136.885 54.6285 136.448 53.3395 136.141 52.8274L134.426 53.8564ZM139.712 52.3419H135.283V54.3419H139.712V52.3419ZM140.544 54.8004C140.477 54.6994 140.386 54.502 140.362 54.3139C140.341 54.1485 140.378 54.0903 140.419 54.049L139.005 52.6348C138.402 53.2377 138.304 53.9848 138.378 54.5642C138.448 55.121 138.679 55.608 138.88 55.9098L140.544 54.8004ZM145.953 54.3551H139.712V56.3551H145.953V54.3551ZM146.953 61.3945V55.3551H144.953V61.3945H146.953ZM139.712 62.3945H145.953V60.3945H139.712V62.3945ZM140.712 65.8234V61.3945H138.712V65.8234H140.712ZM148.167 64.8234H139.712V66.8234H148.167V64.8234ZM149.167 70.051V65.8234H147.167V70.051H149.167ZM76.902 71.051H148.167V69.051H76.902V71.051ZM75.902 65.8234V70.051H77.902V65.8234H75.902ZM78.1613 64.2831L76.5508 64.8871L77.2531 66.7597L78.8636 66.1558L78.1613 64.2831ZM77.5125 61.3945V65.2194H79.5125V61.3945H77.5125ZM75.6941 62.3945H78.5125V60.3945H75.6941V62.3945ZM72.4822 55.2838C72.3974 56.4703 72.8211 59.2305 74.8941 61.9945L76.4941 60.7945C74.7019 58.4048 74.4276 56.1188 74.4771 55.4263L72.4822 55.2838ZM78.1099 54.3551H73.4796V56.3551H78.1099V54.3551ZM84.9545 60.3944H80.9282V62.3944H84.9545V60.3944ZM85.9545 65.8233V61.3944H83.9545V65.8233H85.9545ZM80.9282 66.8233H84.9545V64.8233H80.9282V66.8233ZM79.9282 61.3944V65.8233H81.9282V61.3944H79.9282ZM95.8255 62.3944H99.8517V60.3944H95.8255V62.3944ZM96.8255 65.8233V61.3944H94.8255V65.8233H96.8255ZM99.8517 64.8233H95.8255V66.8233H99.8517V64.8233ZM98.8517 61.3944V65.8233H100.852V61.3944H98.8517ZM120.788 60.3944H116.762V62.3944H120.788V60.3944ZM121.788 65.8233V61.3944H119.788V65.8233H121.788ZM116.762 66.8233H120.788V64.8233H116.762V66.8233ZM115.762 61.3944V65.8233H117.762V61.3944H115.762ZM124.815 62.3944H128.841V60.3944H124.815V62.3944ZM125.815 65.8233V61.3944H123.815V65.8233H125.815ZM128.841 64.8233H124.815V66.8233H128.841V64.8233ZM127.841 61.3944V65.8233H129.841V61.3944H127.841ZM108.307 60.3944H104.281V62.3944H108.307V60.3944ZM109.307 65.8233V61.3944H107.307V65.8233H109.307ZM104.281 66.8233H108.307V64.8233H104.281V66.8233ZM103.281 61.3944V65.8233H105.281V61.3944H103.281ZM89.9808 62.8036C89.9808 62.5776 90.164 62.3944 90.39 62.3944V60.3944C89.0594 60.3944 87.9808 61.473 87.9808 62.8036H89.9808ZM89.9808 64.4141V62.8036H87.9808V64.4141H89.9808ZM90.39 64.8233C90.164 64.8233 89.9808 64.6401 89.9808 64.4141H87.9808C87.9808 65.7447 89.0594 66.8233 90.39 66.8233V64.8233ZM90.7992 64.4141C90.7992 64.6401 90.616 64.8233 90.39 64.8233V66.8233C91.7206 66.8233 92.7992 65.7447 92.7992 64.4141H90.7992ZM90.7992 62.8036V64.4141H92.7992V62.8036H90.7992ZM90.39 62.3944C90.616 62.3944 90.7992 62.5776 90.7992 62.8036H92.7992C92.7992 61.473 91.7206 60.3944 90.39 60.3944V62.3944ZM111.327 60.3944C109.996 60.3944 108.917 61.473 108.917 62.8036H110.917C110.917 62.5776 111.101 62.3944 111.327 62.3944V60.3944ZM113.736 62.8036C113.736 61.473 112.657 60.3944 111.327 60.3944V62.3944C111.553 62.3944 111.736 62.5776 111.736 62.8036H113.736ZM113.736 64.4141V62.8036H111.736V64.4141H113.736ZM111.327 66.8233C112.657 66.8233 113.736 65.7447 113.736 64.4141H111.736C111.736 64.6401 111.553 64.8233 111.327 64.8233V66.8233ZM108.917 64.4141C108.917 65.7447 109.996 66.8233 111.327 66.8233V64.8233C111.101 64.8233 110.917 64.6401 110.917 64.4141H108.917ZM108.917 62.8036V64.4141H110.917V62.8036H108.917ZM134.27 62.8036C134.27 62.5776 134.453 62.3944 134.679 62.3944V60.3944C133.349 60.3944 132.27 61.473 132.27 62.8036H134.27ZM134.27 64.4141V62.8036H132.27V64.4141H134.27ZM134.679 64.8233C134.453 64.8233 134.27 64.6401 134.27 64.4141H132.27C132.27 65.7447 133.349 66.8233 134.679 66.8233V64.8233ZM135.088 64.4141C135.088 64.6401 134.905 64.8233 134.679 64.8233V66.8233C136.01 66.8233 137.088 65.7447 137.088 64.4141H135.088ZM135.088 62.8036V64.4141H137.088V62.8036H135.088ZM134.679 62.3944C134.905 62.3944 135.088 62.5776 135.088 62.8036H137.088C137.088 61.473 136.01 60.3944 134.679 60.3944V62.3944ZM77.4697 54.1101C77.4756 54.1151 77.4831 54.1217 77.4918 54.13L78.8716 52.6822C78.8317 52.6441 78.7911 52.6079 78.75 52.5737L77.4697 54.1101Z" fill="white"/>
<path d="M72.0704 55.355H73.0704V54.355H72.0704V55.355ZM8.45519 55.355V54.355H8.11507L7.84548 54.5624L8.45519 55.355ZM72.0704 61.1931V62.1931H73.0704V61.1931H72.0704ZM71.6822 61.1931L70.9239 61.8449L71.2231 62.1931H71.6822V61.1931ZM51.5219 61.1931V62.1931H51.981L52.2803 61.8449L51.5219 61.1931ZM48.3298 61.1931L47.5715 61.8449L47.8707 62.1931H48.3298V61.1931ZM28.1695 61.1931V62.1931H28.6286L28.9279 61.8449L28.1695 61.1931ZM4.02628 61.1931L3.12254 60.765L2.44608 62.1931H4.02628V61.1931ZM72.0704 54.355H8.45519V56.355H72.0704V54.355ZM73.0704 61.1931V55.355H71.0704V61.1931H73.0704ZM71.6822 62.1931H72.0704V60.1931H71.6822V62.1931ZM61.6021 57.5628C65.3298 57.5628 68.669 59.2217 70.9239 61.8449L72.4406 60.5412C69.822 57.4948 65.9371 55.5628 61.6021 55.5628V57.5628ZM52.2803 61.8449C54.5351 59.2217 57.8743 57.5628 61.6021 57.5628V55.5628C57.2671 55.5628 53.3822 57.4948 50.7636 60.5412L52.2803 61.8449ZM48.3298 62.1931H51.5219V60.1931H48.3298V62.1931ZM38.2497 57.5628C41.9774 57.5628 45.3166 59.2217 47.5715 61.8449L49.0882 60.5412C46.4696 57.4948 42.5847 55.5628 38.2497 55.5628V57.5628ZM28.9279 61.8449C31.1827 59.2217 34.5219 57.5628 38.2497 57.5628V55.5628C33.9146 55.5628 30.0297 57.4948 27.4112 60.5412L28.9279 61.8449ZM4.02628 62.1931H28.1695V60.1931H4.02628V62.1931ZM7.84548 54.5624C6.85834 55.3217 4.64533 57.5502 3.12254 60.765L4.93002 61.6212C6.30615 58.716 8.30732 56.7304 9.0649 56.1476L7.84548 54.5624Z" fill="white"/>
<circle cx="38.0483" cy="69.6482" r="10.4749" stroke="white" stroke-width="2"/>
<circle cx="61.8034" cy="69.6482" r="10.4749" stroke="white" stroke-width="2"/>
<circle cx="164.071" cy="69.6482" r="10.4749" stroke="white" stroke-width="2"/>
<circle cx="38.2497" cy="69.4468" r="7.05256" stroke="white" stroke-width="2"/>
<circle cx="62.0047" cy="69.4468" r="7.05256" stroke="white" stroke-width="2"/>
<circle cx="164.272" cy="69.4468" r="7.05256" stroke="white" stroke-width="2"/>
<path d="M147.406 5.36388L146.748 4.6113L146.748 4.6113L147.406 5.36388ZM145.953 6.63566L145.294 5.88309L144.953 6.1819V6.63566H145.953ZM151.354 4.68954L151.726 3.76107L151.354 4.68954ZM161.453 6.90869L161.401 7.90733L161.453 6.90869ZM167.584 7.22858L167.636 6.22994L167.584 7.22858ZM170.125 7.34363L170.167 6.3445L170.125 7.34363ZM188.802 13.0855L189.537 12.4084V12.4084L188.802 13.0855ZM191.852 25.3579V26.3579H192.852V25.3579H191.852ZM190.846 25.3579V24.3579H189.846V25.3579H190.846ZM190.846 38.0406H189.846V38.4549L190.139 38.7478L190.846 38.0406ZM193.664 55.3537V56.3537H194.83L194.652 55.2016L193.664 55.3537ZM173.701 55.3537L172.863 55.8984L173.158 56.3537H173.701V55.3537ZM154.441 55.3537V56.3537H154.984L155.279 55.8984L154.441 55.3537ZM145.953 55.3537H144.953V56.3537H145.953V55.3537ZM146.748 4.6113L145.294 5.88309L146.611 7.38824L148.065 6.11646L146.748 4.6113ZM151.726 3.76107C150.038 3.08616 148.115 3.41463 146.748 4.6113L148.065 6.11646C148.866 5.41493 149.994 5.22237 150.983 5.61802L151.726 3.76107ZM161.505 5.91005C158.149 5.73498 154.845 5.00895 151.726 3.76107L150.983 5.61802C154.306 6.94739 157.826 7.72083 161.401 7.90733L161.505 5.91005ZM167.636 6.22994L161.505 5.91005L161.401 7.90733L167.532 8.22722L167.636 6.22994ZM170.167 6.3445C169.319 6.30904 168.476 6.27376 167.636 6.22994L167.532 8.22722C168.384 8.27167 169.237 8.30736 170.083 8.34275L170.167 6.3445ZM189.537 12.4084C184.463 6.89265 177.079 6.63365 170.167 6.3445L170.083 8.34275C177.19 8.64004 183.647 8.95996 188.066 13.7626L189.537 12.4084ZM192.852 25.1157C192.852 23.0994 192.765 20.7488 192.321 18.5107C191.879 16.2815 191.064 14.068 189.537 12.4084L188.066 13.7626C189.241 15.0402 189.952 16.8462 190.359 18.9C190.765 20.9448 190.852 23.1407 190.852 25.1157H192.852ZM192.852 25.3579V25.1157H190.852V25.3579H192.852ZM190.846 26.3579H191.852V24.3579H190.846V26.3579ZM191.846 38.0406V25.3579H189.846V38.0406H191.846ZM193.859 42.9008C193.859 40.8127 193.029 38.8101 191.553 37.3335L190.139 38.7478C191.24 39.8492 191.859 41.3431 191.859 42.9008H193.859ZM193.859 44.8237V42.9008H191.859V44.8237H193.859ZM194.652 55.2016C194.124 51.7676 193.859 48.2982 193.859 44.8237H191.859C191.859 48.4 192.132 51.971 192.676 55.5057L194.652 55.2016ZM173.701 56.3537H193.664V54.3537H173.701V56.3537ZM164.071 51.1208C167.754 51.1208 170.993 53.0206 172.863 55.8984L174.54 54.809C172.317 51.3874 168.459 49.1208 164.071 49.1208V51.1208ZM155.279 55.8984C157.148 53.0206 160.388 51.1208 164.071 51.1208V49.1208C159.683 49.1208 155.824 51.3874 153.602 54.809L155.279 55.8984ZM145.953 56.3537H154.441V54.3537H145.953V56.3537ZM144.953 6.63566V55.3537H146.953V6.63566H144.953Z" fill="white"/>
<path d="M169.714 34.2217C164.466 34.1242 160.18 30.0912 159.683 24.95H169.714V34.2217Z" stroke="white" stroke-width="2"/>
<path d="M185.612 37.0419C178.717 37.0419 173.068 31.7133 172.557 24.95H187.43V37.0419H185.612Z" stroke="white" stroke-width="2"/>
<path d="M192.456 65.4828V57.5694H174.741C168.683 52.9095 159.285 52.4073 154.131 58.0505C150.61 61.9053 150.006 67.0084 150.382 70.0509C151.187 58.7773 159.39 56.327 163.685 56.0586C173.992 56.5418 177.962 65.2864 178.364 70.0509C178.364 68.4596 180.265 67.8364 181.856 67.8364H186.051C186.247 67.8364 186.394 68.1638 186.406 68.3594C186.525 70.2234 188.902 70.6973 190.549 69.8173C190.686 69.7446 190.814 69.6677 190.935 69.5877C192.234 68.7305 192.456 67.0386 192.456 65.4828Z" stroke="white" stroke-width="2"/>
</svg>
