<svg width="305" height="81" viewBox="0 0 305 81" fill="none" xmlns="http://www.w3.org/2000/svg">
<rect x="1" y="1.02771" width="185.668" height="48.9642" stroke="white" stroke-width="2"/>
<path d="M199.964 29.5594V28.5594H198.964V29.5594H199.964ZM201.671 29.5594V30.5594H202.671V29.5594H201.671ZM201.671 14.8342H202.671V14.6146L202.579 14.4152L201.671 14.8342ZM197.83 6.51131L197.161 5.76801L196.613 6.26111L196.922 6.93037L197.83 6.51131ZM199.964 4.59063L200.85 4.12738L200.253 2.98507L199.295 3.84734L199.964 4.59063ZM204.872 13.9806H205.872V13.735L205.758 13.5174L204.872 13.9806ZM204.872 29.5594H203.872V30.5594H204.872V29.5594ZM207.006 29.5594V30.5594H208.006V29.5594H207.006ZM207.006 3.31018V2.31018H206.006V3.31018H207.006ZM275.97 36.1712L275.833 37.1618H275.833L275.97 36.1712ZM280.942 36.9255L281.106 35.9391H281.106L280.942 36.9255ZM301.969 56.1835L302.969 56.1659V56.1659L301.969 56.1835ZM301.973 56.6623H300.973V56.8731L301.058 57.066L301.973 56.6623ZM209.567 69.4668L208.653 69.873L208.917 70.4668H209.567V69.4668ZM301.973 69.4668V70.4668H302.551L302.839 69.9665L301.973 69.4668ZM265.65 28.6352L266.561 28.2223L265.65 28.6352ZM200.964 55.3819V29.5594H198.964V55.3819H200.964ZM199.964 30.5594H201.671V28.5594H199.964V30.5594ZM202.671 29.5594V14.8342H200.671V29.5594H202.671ZM202.579 14.4152L198.738 6.09225L196.922 6.93037L200.763 15.2533L202.579 14.4152ZM198.499 7.2546L200.633 5.33393L199.295 3.84734L197.161 5.76801L198.499 7.2546ZM199.078 5.05389L203.986 14.4439L205.758 13.5174L200.85 4.12738L199.078 5.05389ZM203.872 13.9806V29.5594H205.872V13.9806H203.872ZM204.872 30.5594H207.006V28.5594H204.872V30.5594ZM208.006 29.5594V3.31018H206.006V29.5594H208.006ZM207.006 4.31018H226.364V2.31018H207.006V4.31018ZM275.833 37.1618C277.407 37.3786 279.076 37.6289 280.778 37.9119L281.106 35.9391C279.384 35.6526 277.696 35.3995 276.106 35.1805L275.833 37.1618ZM300.969 56.2012C300.972 56.3541 300.973 56.5079 300.973 56.6623H302.973C302.973 56.496 302.972 56.3305 302.969 56.1659L300.969 56.2012ZM206.092 64.1109L208.653 69.873L210.481 69.0607L207.92 63.2987L206.092 64.1109ZM209.567 70.4668H301.973V68.4668H209.567V70.4668ZM302.839 69.9665C304.043 67.8796 305.595 62.3937 302.888 56.2587L301.058 57.066C303.473 62.5403 302.037 67.3549 301.107 68.9671L302.839 69.9665ZM280.778 37.9119C285.963 38.7746 290.997 40.8327 294.736 43.9414C298.461 47.0378 300.88 51.152 300.969 56.2012L302.969 56.1659C302.867 50.4257 300.095 45.7961 296.015 42.4035C291.949 39.0233 286.565 36.8472 281.106 35.9391L280.778 37.9119ZM264.739 29.0481C266.764 33.514 271.021 36.4988 275.833 37.1618L276.106 35.1805C271.928 34.605 268.283 32.0219 266.561 28.2223L264.739 29.0481ZM226.364 4.31018C242.902 4.31018 257.911 13.9853 264.739 29.0481L266.561 28.2223C259.408 12.4446 243.687 2.31018 226.364 2.31018V4.31018Z" fill="white"/>
<path d="M100.13 50.3923L106.469 58.1869H118.373L124.413 50.3923" stroke="white" stroke-width="2"/>
<path d="M155.891 50.3923L157.422 52.1911H170.11L172.079 50.3923" stroke="white" stroke-width="2"/>
<path d="M110.739 58.1869V62.9086L107.924 65.3818H115.719L113.121 62.9086V58.1869" stroke="white" stroke-width="2"/>
<path d="M253.4 23.4113H246.563C244.832 23.4113 243.429 24.8145 243.429 26.5454C243.429 32.4307 248.2 37.2016 254.085 37.2016H265.014L257.603 25.7026C256.682 24.2743 255.099 23.4113 253.4 23.4113Z" stroke="white" stroke-width="2"/>
<path d="M207.454 29.4071V55.5404H287.503C289.735 55.5404 291.437 56.2498 292.708 57.4148C295.884 60.3257 295.593 65.2705 295.593 69.5789V69.5789" stroke="white" stroke-width="2"/>
<path d="M302.188 56.3882C299.994 52.9188 288.049 46.2941 257.819 47.551" stroke="white" stroke-width="2"/>
<circle cx="176.359" cy="69.0622" r="10.4749" stroke="white" stroke-width="2"/>
<circle cx="275.29" cy="69.0622" r="10.4749" stroke="white" stroke-width="2"/>
<circle cx="141.584" cy="69.0622" r="10.4749" stroke="white" stroke-width="2"/>
<circle cx="176.561" cy="68.8609" r="7.05256" stroke="white" stroke-width="2"/>
<circle cx="275.491" cy="68.8609" r="7.05256" stroke="white" stroke-width="2"/>
<circle cx="141.785" cy="68.8609" r="7.05256" stroke="white" stroke-width="2"/>
<mask id="path-15-inside-1" fill="white">
<path fill-rule="evenodd" clip-rule="evenodd" d="M5.99579 49.7927H90.5365V68.9793L89.3373 68.9793C89.3373 61.0319 82.8947 54.5894 74.9474 54.5894C67.0001 54.5894 60.5575 61.0319 60.5575 68.9793H55.7609C55.7609 61.0319 49.3183 54.5894 41.371 54.5894C33.4236 54.5894 26.9811 61.0319 26.9811 68.9793L5.99579 68.9793V49.7927Z"/>
</mask>
<path d="M90.5365 49.7927H92.5365V47.7927H90.5365V49.7927ZM5.99579 49.7927V47.7927H3.99579V49.7927H5.99579ZM90.5365 68.9793L90.5365 70.9793L92.5365 70.9793V68.9793H90.5365ZM89.3373 68.9793H87.3373V70.9793L89.3373 70.9793L89.3373 68.9793ZM60.5575 68.9793V70.9793H62.5575V68.9793H60.5575ZM55.7609 68.9793H53.7609V70.9793H55.7609V68.9793ZM26.9811 68.9793V70.9793H28.9811V68.9793H26.9811ZM5.99579 68.9793H3.99579V70.9793H5.99579L5.99579 68.9793ZM90.5365 47.7927H5.99579V51.7927H90.5365V47.7927ZM92.5365 68.9793V49.7927H88.5365V68.9793H92.5365ZM89.3373 70.9793L90.5365 70.9793L90.5365 66.9793L89.3373 66.9793L89.3373 70.9793ZM74.9474 56.5894C81.7901 56.5894 87.3373 62.1365 87.3373 68.9793H91.3373C91.3373 59.9274 83.9993 52.5894 74.9474 52.5894V56.5894ZM62.5575 68.9793C62.5575 62.1365 68.1046 56.5894 74.9474 56.5894V52.5894C65.8955 52.5894 58.5575 59.9274 58.5575 68.9793H62.5575ZM55.7609 70.9793H60.5575V66.9793H55.7609V70.9793ZM41.371 56.5894C48.2137 56.5894 53.7609 62.1365 53.7609 68.9793H57.7609C57.7609 59.9274 50.4228 52.5894 41.371 52.5894V56.5894ZM28.9811 68.9793C28.9811 62.1365 34.5282 56.5894 41.371 56.5894V52.5894C32.3191 52.5894 24.9811 59.9274 24.9811 68.9793H28.9811ZM5.99579 70.9793L26.9811 70.9793V66.9793L5.99579 66.9793L5.99579 70.9793ZM3.99579 49.7927V68.9793H7.99579V49.7927H3.99579Z" fill="white" mask="url(#path-15-inside-1)"/>
<circle cx="41.4538" cy="69.0622" r="10.4749" stroke="white" stroke-width="2"/>
<circle cx="41.6552" cy="68.8609" r="7.05256" stroke="white" stroke-width="2"/>
<circle cx="75.0303" cy="69.0622" r="10.4749" stroke="white" stroke-width="2"/>
<circle cx="75.2316" cy="68.8609" r="7.05256" stroke="white" stroke-width="2"/>
<path d="M125.612 55.189V54.189H124.612V55.189H125.612ZM125.612 68.6795H124.612V69.6795H125.612V68.6795ZM199.96 68.6795V69.6795H200.96V68.6795H199.96ZM199.96 63.5831V62.5831H198.96V63.5831H199.96ZM200.559 54.189H125.612V56.189H200.559V54.189ZM124.612 55.189V68.6795H126.612V55.189H124.612ZM125.612 69.6795H127.739V67.6795H125.612V69.6795ZM155.262 69.6795H162.515V67.6795H155.262V69.6795ZM190.038 69.6795H199.96V67.6795H190.038V69.6795ZM200.96 68.6795V63.5831H198.96V68.6795H200.96ZM199.96 64.5831H207.754V62.5831H199.96V64.5831Z" fill="white"/>
</svg>
