<svg width="39" height="39" viewBox="0 0 39 39" fill="none" xmlns="http://www.w3.org/2000/svg">
<path d="M16.5718 21.4571L13.3734 18.496L12 19.7675L16.5718 24L26 15.2715L24.6266 14L16.5718 21.4571Z" fill="white"/>
<path d="M18.4919 7.00059C18.9283 7.00059 19.3582 7.02826 19.758 7.09335C20.1518 7.14375 20.5403 7.2276 20.9192 7.34395C21.299 7.45624 21.6705 7.59619 22.042 7.77193C22.4036 7.93955 22.7751 8.14459 23.1466 8.36753C23.7747 8.75808 24.3927 9.07378 25.0225 9.32601C26.2622 9.81067 27.5731 10.0991 28.9059 10.1803C29.5823 10.2275 30.277 10.2552 31 10.2552V16.7644C31 18.0012 30.8384 19.1728 30.5152 20.2891C30.2047 21.3895 29.7636 22.4507 29.2007 23.451C28.6403 24.4499 27.9771 25.3904 27.2216 26.2581C26.4544 27.1455 25.6238 27.9786 24.7359 28.7511C23.8363 29.5259 22.8888 30.246 21.8988 30.9073C20.9092 31.5777 19.9096 32.201 18.91 32.7673L18.5102 33L18.1103 32.7673C17.0828 32.1862 16.0791 31.5657 15.1016 30.9073C14.106 30.2535 13.158 29.533 12.2644 28.7511C11.3771 27.9785 10.547 27.1454 9.78047 26.2581C9.02694 25.3867 8.36082 24.4467 7.79129 23.451C7.23808 22.4462 6.79738 21.3862 6.47684 20.2891C6.15159 19.1415 5.99123 17.9552 6.00037 16.7644V10.2552C6.72507 10.2552 7.41978 10.2275 8.09617 10.1803C8.76199 10.1352 9.42351 10.0422 10.0753 9.90207C10.7134 9.76212 11.3515 9.57661 11.9796 9.32601C12.6313 9.06908 13.2561 8.75137 13.8454 8.37729C14.5785 7.91188 15.3215 7.56852 16.0545 7.34233C16.844 7.10593 17.6662 6.99065 18.4919 7.00059ZM29.324 11.8548C28.0629 11.7951 26.8136 11.5891 25.6022 11.2413C24.3973 10.8903 23.2496 10.3736 22.1937 9.7068C21.6459 9.35562 21.0511 9.08016 20.4261 8.88826C19.8017 8.70395 19.1524 8.61287 18.5002 8.61813C17.8431 8.61398 17.1891 8.70501 16.5593 8.88826C15.9334 9.07392 15.3393 9.34981 14.7967 9.7068C13.7389 10.3772 12.5883 10.8962 11.3798 11.2479C10.1986 11.5831 8.96247 11.7881 7.66635 11.863V16.7725C7.66635 17.8514 7.80962 18.8832 8.09617 19.8774C8.38809 20.8631 8.79035 21.8143 9.29567 22.7138C9.80704 23.6227 10.4098 24.4797 11.0949 25.2719C11.7896 26.0709 12.531 26.8146 13.3307 27.5209C14.1303 28.2287 14.9683 28.8797 15.8446 29.4834C16.7293 30.0888 17.6156 30.6372 18.5002 31.1384C19.406 30.6233 20.2892 30.0711 21.1474 29.4834C22.0295 28.8816 22.8719 28.2261 23.6697 27.5209C24.4694 26.8146 25.2124 26.0709 25.9071 25.2719C26.5923 24.4797 27.1951 23.6228 27.7064 22.7138C28.2094 21.8154 28.6057 20.8638 28.8875 19.8774C29.1828 18.8679 29.3298 17.8225 29.324 16.7725V11.8548Z" fill="white"/>
</svg>
