<svg width="54" height="59" viewBox="0 0 54 59" fill="none" xmlns="http://www.w3.org/2000/svg">
<g clip-path="url(#clip0)">
<path d="M22.9927 47.7192L22.3464 48.0474L21.8334 47.5353L15.8871 41.6C15.4042 41.1391 14.7384 41.001 14.1317 41.1891C11.0027 42.22 7.65233 42.7765 4.16553 42.7765C3.22775 42.7765 2.45945 43.546 2.45945 44.4776V53.9316C2.45945 54.8632 3.22775 55.6327 4.16553 55.6327C29.0251 55.6327 49.1689 35.5231 49.1689 10.7135C49.1689 9.78185 48.4006 9.01233 47.4628 9.01233H37.9915C37.0538 9.01233 36.2855 9.78185 36.2855 10.7135C36.2855 14.1945 35.7279 17.5392 34.6949 20.663C34.5038 21.2772 34.6556 21.9129 35.0993 22.3242L35.1137 22.3376L35.1276 22.3515L41.081 28.321L41.5926 28.834L41.2645 29.48C37.2708 37.3421 30.8381 43.7345 22.9927 47.7192Z" fill="black" stroke="black" stroke-width="2"/>
<path d="M22.9927 42.6204L22.3464 42.9487L21.8334 42.4366L15.8871 36.5012C15.4042 36.0404 14.7384 35.9023 14.1317 36.0903C11.0027 37.1212 7.65233 37.6777 4.16553 37.6777C3.22775 37.6777 2.45945 38.4472 2.45945 39.3789V48.8328C2.45945 49.7644 3.22775 50.5339 4.16553 50.5339C29.0251 50.5339 49.1689 30.4243 49.1689 5.61471C49.1689 4.68309 48.4006 3.91357 47.4628 3.91357H37.9915C37.0538 3.91357 36.2855 4.68309 36.2855 5.61471C36.2855 9.09572 35.7279 12.4405 34.6949 15.5642C34.5038 16.1785 34.6556 16.8142 35.0993 17.2255L35.1137 17.2388L35.1276 17.2527L41.081 23.2222L41.5926 23.7353L41.2645 24.3813C37.2708 32.2433 30.8381 38.6357 22.9927 42.6204ZM24.8142 3.93456C12.7117 4.44355 2.99146 14.1476 2.48057 26.2238H5.89626C6.40071 16.0131 14.5884 7.84302 24.8142 7.34036V3.93456ZM24.8142 14.7574C18.6939 15.2404 13.8082 20.1184 13.3233 26.2238H16.75C17.2115 21.9866 20.5722 18.6341 24.8142 18.1742V14.7574Z" fill="white" stroke="black" stroke-width="2"/>
</g>
<defs>
<clipPath id="clip0">
<rect width="54" height="59" fill="white" transform="matrix(-1 0 0 1 54 0)"/>
</clipPath>
</defs>
</svg>
