<svg width="55" height="56" viewBox="0 0 55 56" fill="none" xmlns="http://www.w3.org/2000/svg">
<path d="M34.1167 8H5C3.34315 8 2 9.34315 2 11V50C2 51.6569 3.34315 53 5 53H40C41.6569 53 43 51.6569 43 50V16.8636L34.1167 8Z" fill="black" stroke="black" stroke-width="2"/>
<path d="M44.1167 2H15C13.3431 2 12 3.34315 12 5V44C12 45.6569 13.3431 47 15 47H50C51.6569 47 53 45.6569 53 44V10.8636L44.1167 2Z" fill="white" stroke="black" stroke-width="2"/>
<path d="M19 14H29.9714M19 21H43" stroke="black" stroke-width="2"/>
<path d="M20 40C21.9905 39.5095 25.4158 38.1404 27.5282 35.8461C29.283 33.9402 28.9196 30.9679 26.3291 31.0002V31.0002C22.9878 31.0419 24.7449 36.9245 28.0711 37.2437C30.1925 37.4473 32.4053 37.148 34 35.7291" stroke="black" stroke-width="2"/>
</svg>
