<svg width="90" height="65" viewBox="0 0 90 65" fill="none" xmlns="http://www.w3.org/2000/svg">
<path d="M65.2866 23.5991V44.0395L48.8128 31.1859L51.1446 29.1337L51.1476 29.131C52.3665 28.0497 52.4769 26.194 51.3319 24.9988C50.2218 23.8269 48.3468 23.7695 47.1473 24.8159L47.1439 24.819L37.3253 33.4644C37.3252 33.4644 37.3251 33.4645 37.325 33.4646C37.2838 33.4899 37.2367 33.5229 37.188 33.5654C36.389 34.2477 35.3213 34.5286 34.253 34.4493C33.1718 34.3689 32.1982 33.9273 31.6105 33.3091L31.6095 33.3081C30.2176 31.8478 30.1951 29.5285 31.8165 28.0641L31.8279 28.0537L31.8391 28.043C31.8699 28.0134 31.8941 27.9865 31.9114 27.9663C31.912 27.9655 31.9126 27.9648 31.9132 27.9641L44.037 17.2957C44.5832 16.8152 45.3024 16.5435 46.0557 16.5435H56.7107C57.514 16.5435 58.2772 16.8535 58.8151 17.3792L58.815 17.3793L58.8211 17.3851L65.2866 23.5991ZM37.564 33.3557L37.5618 33.3564L37.564 33.3557ZM31.9875 27.8665C31.9875 27.8665 31.9866 27.8679 31.9854 27.8695L31.9865 27.8681L31.9875 27.8665ZM36.0006 16.5435L27.8435 23.722L27.8426 23.7228C23.7987 27.29 23.5032 33.3675 27.2341 37.2865L27.2348 37.2873C30.8903 41.1188 37.1439 41.4589 41.2325 37.8734L41.2342 37.8718L44.3331 35.1417L62.1957 49.0783C62.1959 49.0785 62.1961 49.0787 62.1963 49.0788C63.457 50.07 63.638 51.8178 62.6202 53.0233C62.6201 53.0234 62.6201 53.0234 62.62 53.0235L61.4418 54.4181L61.4388 54.4217C60.417 55.6427 58.5247 55.8359 57.239 54.8353C57.2388 54.8351 57.2385 54.835 57.2383 54.8348L56.5707 54.3119L55.8127 53.7184L55.1908 54.4532L51.296 59.0549L51.2951 59.0559C50.0476 60.5337 47.7517 60.7767 46.2002 59.5665L43.9914 57.7283L43.3037 57.156L42.6587 57.7759L42.6339 57.7997L42.5969 57.8353L42.5637 57.8745C40.1536 60.7206 35.7787 61.1707 32.7993 58.8572L21.594 49.1111L21.3118 48.8657H20.9377H19.6678V23.5997L26.145 17.3857L26.1457 17.3851C26.702 16.8504 27.4577 16.5435 28.2561 16.5435H36.0006ZM71.2683 49.8895V24.1971H81.1761V52.7044H74.2375C72.5566 52.7044 71.2683 51.4103 71.2683 49.8895ZM73.2375 47.9821C73.2375 49.6205 74.6161 50.8895 76.2222 50.8895C77.8283 50.8895 79.2068 49.6205 79.2068 47.9821C79.2068 46.3437 77.8283 45.0746 76.2222 45.0746C74.6161 45.0746 73.2375 46.3437 73.2375 47.9821ZM10.7292 52.6925H3.79071V24.1971H13.6985V49.8776C13.6985 51.3984 12.4102 52.6925 10.7292 52.6925ZM11.7292 47.9821C11.7292 46.3437 10.3507 45.0746 8.74461 45.0746C7.14269 45.0746 5.75998 46.3278 5.75998 47.9821C5.75998 49.6205 7.13853 50.8895 8.74461 50.8895C10.3507 50.8895 11.7292 49.6205 11.7292 47.9821Z" fill="black" stroke="black" stroke-width="2"/>
<path d="M70.1703 18.3966V38.837L53.6965 25.9834L56.0283 23.9312L56.0313 23.9285C57.2501 22.8472 57.3606 20.9917 56.2158 19.7965C55.1057 18.6244 53.2306 18.5669 52.031 19.6134L52.0276 19.6165L42.209 28.2619C42.2089 28.262 42.2088 28.262 42.2086 28.2621C42.1675 28.2874 42.1205 28.3204 42.0718 28.3628C41.2728 29.0452 40.2051 29.3261 39.1367 29.2468C38.0555 29.1664 37.0819 28.7248 36.4942 28.1065L36.4932 28.1056C35.1013 26.6453 35.0788 24.326 36.7002 22.8616L36.7117 22.8512L36.7228 22.8405C36.7536 22.8109 36.7778 22.784 36.7951 22.7637C36.7957 22.763 36.7963 22.7623 36.7969 22.7616L48.9207 12.0932C49.4669 11.6127 50.1861 11.3409 50.9394 11.3409H61.5945C62.3977 11.3409 63.1609 11.651 63.6988 12.1767L63.6987 12.1767L63.7048 12.1826L70.1703 18.3966ZM42.4477 28.1532L42.4454 28.1539L42.4477 28.1532ZM36.8702 22.6655C36.8722 22.6626 36.871 22.6644 36.8692 22.667L36.8702 22.6655ZM40.8843 11.3409L32.7272 18.5195L32.7263 18.5203C28.6824 22.0875 28.3869 28.165 32.1178 32.084L32.1185 32.0847C35.774 35.9163 42.0276 36.2564 46.1162 32.6708L46.1179 32.6693L49.2168 29.9392L67.0794 43.8758C67.0796 43.876 67.0798 43.8762 67.08 43.8763C68.3407 44.8674 68.5217 46.6153 67.5039 47.8208C67.5038 47.8209 67.5038 47.8209 67.5037 47.821L66.3255 49.2156L66.3225 49.2192C65.3007 50.4402 63.4084 50.6334 62.1227 49.6328C62.1225 49.6326 62.1222 49.6325 62.122 49.6323L61.4544 49.1094L60.6964 48.5159L60.0745 49.2507L56.1797 53.8524L56.1788 53.8534C54.9313 55.3312 52.6354 55.5742 51.0839 54.364L48.8751 52.5257L48.1874 51.9535L47.5424 52.5734L47.5176 52.5972L47.4806 52.6328L47.4474 52.672C45.0373 55.5181 40.6624 55.9682 37.683 53.6547L26.4777 43.9086L26.1955 43.6632H25.8214H24.5515V18.3972L31.0287 12.1832L31.0294 12.1826C31.5857 11.6479 32.3414 11.3409 33.1398 11.3409H40.8843ZM76.152 44.687V18.9946H86.0598V47.5019H79.1213C77.4403 47.5019 76.152 46.2078 76.152 44.687ZM78.1213 42.7795C78.1213 44.4179 79.4998 45.687 81.1059 45.687C82.712 45.687 84.0905 44.4179 84.0905 42.7795C84.0905 41.1412 82.712 39.8721 81.1059 39.8721C79.4998 39.8721 78.1213 41.1411 78.1213 42.7795ZM15.6129 47.49H8.67441V18.9946H18.5822V44.6751C18.5822 46.1959 17.2939 47.49 15.6129 47.49ZM16.6129 42.7795C16.6129 41.1412 15.2344 39.8721 13.6283 39.8721C12.0264 39.8721 10.6437 41.1252 10.6437 42.7795C10.6437 44.4179 12.0222 45.687 13.6283 45.687C15.2344 45.687 16.6129 44.4179 16.6129 42.7795Z" fill="white" stroke="black" stroke-width="2"/>
</svg>
