<svg width="27" height="27" viewBox="0 0 27 27" fill="none" xmlns="http://www.w3.org/2000/svg">
<path d="M25.4268 7.0158C25.6015 6.42976 25.4268 6 24.6009 6H21.8649C21.1687 6 20.8506 6.37179 20.6759 6.78012C20.6759 6.78012 19.2849 10.2069 17.3136 12.4288C16.6774 13.0753 16.3867 13.2794 16.0398 13.2794C15.8664 13.2794 15.6144 13.0753 15.6144 12.4892V7.0158C15.6144 6.31255 15.4135 6 14.8334 6H10.5342C10.1 6 9.83801 6.32516 9.83801 6.63519C9.83801 7.30062 10.8236 7.45438 10.9247 9.32969V13.3979C10.9247 14.2889 10.7662 14.4515 10.4169 14.4515C9.48993 14.4515 7.23427 11.0122 5.89559 7.07503C5.63484 6.31003 5.3716 6.00126 4.67294 6.00126H1.9382C1.15595 6.00126 1 6.37305 1 6.78138C1 7.51487 1.92697 11.1445 5.31795 15.945C7.5786 19.223 10.7612 21 13.6607 21C15.3986 21 15.6132 20.6055 15.6132 19.925V17.4472C15.6132 16.6583 15.7791 16.4995 16.3293 16.4995C16.7335 16.4995 17.4297 16.7062 19.0528 18.2853C20.9067 20.1581 21.2136 20.9987 22.2554 20.9987H24.9901C25.7711 20.9987 26.1616 20.6043 25.9371 19.8254C25.6913 19.0503 24.8055 17.9224 23.6303 16.5877C22.9915 15.8265 22.0371 15.0073 21.7464 14.5977C21.3409 14.0697 21.4582 13.8365 21.7464 13.3677C21.7476 13.3689 25.08 8.62771 25.4268 7.0158Z" fill="white"/>
</svg>
